<svg xmlns="http://www.w3.org/2000/svg" version="1.0" width="135.000000pt" height="107.000000pt" viewBox="0 0 270.000000 214.000000" preserveAspectRatio="xMidYMid meet">

<g transform="translate(0.000000,214.000000) scale(0.100000,-0.100000)" fill="#000000" stroke="none">
<path d="M943 1822 c-91 -72 -86 -67 -78 -91 10 -33 41 -25 106 28 l60 48 155 -116 154 -116 0 -402 0 -403 -95 0 -95 0 0 153 c0 108 -4 158 -12 169 -18 22 -349 292 -376 307 -19 10 -35 0 -172 -114 -115 -97 -150 -132 -150 -150 0 -28 20 -37 48 -22 12 7 75 58 141 114 l119 102 166 -136 166 -136 0 -167 c0 -116 4 -170 12 -178 8 -8 57 -12 155 -12 130 0 143 2 153 19 6 13 10 173 10 450 0 411 -1 432 -19 450 -45 45 -342 261 -358 260 -10 0 -50 -26 -90 -57z"/>
<path d="M471 1675 c-90 -73 -168 -139 -172 -147 -5 -7 -9 -182 -9 -390 l0 -376 -27 -10 c-47 -16 -117 -87 -148 -148 -25 -50 -30 -71 -30 -135 1 -182 134 -314 315 -313 99 0 164 29 227 98 25 28 50 63 55 78 l10 28 292 0 292 0 44 45 c24 25 47 45 50 45 3 0 27 -27 53 -60 27 -33 55 -60 63 -60 7 0 31 22 53 49 l39 50 45 -50 c24 -27 49 -49 55 -49 6 0 31 24 55 54 l44 54 37 -44 c20 -24 45 -44 55 -44 9 0 40 28 68 63 85 106 83 97 33 162 -24 31 -51 60 -61 66 -11 5 -267 9 -643 9 -554 0 -626 -2 -640 -16 -20 -19 -20 -19 0 -38 14 -14 85 -16 639 -16 l624 0 25 -32 c26 -34 26 -38 -17 -88 l-28 -33 -43 48 c-49 56 -55 55 -112 -19 l-37 -48 -48 52 c-55 60 -66 59 -114 -10 -23 -34 -31 -39 -39 -28 -46 61 -91 108 -103 108 -8 0 -40 -25 -72 -55 l-58 -55 -281 0 c-154 0 -287 -3 -295 -6 -9 -3 -27 -30 -42 -60 -32 -66 -95 -117 -166 -134 -188 -45 -354 121 -309 309 16 66 90 151 155 178 l45 18 0 387 0 387 147 121 c81 66 150 120 153 120 3 0 77 -58 165 -130 88 -71 168 -130 178 -130 21 0 32 23 20 43 -13 25 -347 287 -363 286 -8 0 -89 -60 -179 -134z"/>
<path d="M580 1545 c0 -20 5 -25 25 -25 20 0 25 5 25 25 0 20 -5 25 -25 25 -20 0 -25 -5 -25 -25z"/>
<path d="M670 1545 c0 -20 5 -25 25 -25 20 0 25 5 25 25 0 20 -5 25 -25 25 -20 0 -25 -5 -25 -25z"/>
<path d="M1719 1498 c-55 -31 -84 -89 -84 -168 1 -121 52 -181 161 -188 100 -7 165 41 185 136 19 95 -13 182 -81 221 -51 28 -132 28 -181 -1z m154 -26 c35 -31 49 -72 49 -142 0 -105 -41 -165 -112 -165 -83 0 -135 102 -110 218 13 60 26 81 66 102 34 18 79 13 107 -13z"/>
<path d="M2020 1505 c0 -8 9 -15 19 -15 28 0 31 -18 31 -160 0 -142 -3 -160 -31 -160 -10 0 -19 -7 -19 -15 0 -12 14 -15 70 -15 53 0 70 3 70 14 0 7 -9 16 -20 19 -18 5 -20 14 -20 76 l0 71 95 0 95 0 0 -71 c0 -62 -2 -71 -20 -76 -11 -3 -20 -12 -20 -19 0 -11 17 -14 70 -14 56 0 70 3 70 15 0 8 -9 15 -20 15 -19 0 -20 7 -20 156 0 147 1 156 20 161 11 3 20 12 20 19 0 11 -17 14 -70 14 -53 0 -70 -3 -70 -14 0 -7 9 -16 20 -19 17 -4 20 -14 20 -71 l0 -66 -95 0 -95 0 0 66 c0 57 3 67 20 71 11 3 20 12 20 19 0 11 -17 14 -70 14 -56 0 -70 -3 -70 -15z"/>
<path d="M580 1455 c0 -20 5 -25 25 -25 20 0 25 5 25 25 0 20 -5 25 -25 25 -20 0 -25 -5 -25 -25z"/>
<path d="M670 1455 c0 -20 5 -25 25 -25 20 0 25 5 25 25 0 20 -5 25 -25 25 -20 0 -25 -5 -25 -25z"/>
<path d="M670 1100 c0 -27 3 -30 30 -30 27 0 30 3 30 30 0 27 -3 30 -30 30 -27 0 -30 -3 -30 -30z"/>
<path d="M760 1100 c0 -25 4 -30 25 -30 21 0 25 5 25 30 0 25 -4 30 -25 30 -21 0 -25 -5 -25 -30z"/>
<path d="M670 1010 c0 -27 3 -30 30 -30 27 0 30 3 30 30 0 27 -3 30 -30 30 -27 0 -30 -3 -30 -30z"/>
<path d="M760 1010 c0 -25 4 -30 25 -30 21 0 25 5 25 30 0 25 -4 30 -25 30 -21 0 -25 -5 -25 -30z"/>
<path d="M1600 845 c0 -57 4 -95 10 -95 6 0 10 18 10 40 l0 40 40 0 40 0 0 -40 c0 -22 5 -40 10 -40 6 0 10 38 10 95 0 57 -4 95 -10 95 -5 0 -10 -18 -10 -40 l0 -40 -40 0 -40 0 0 40 c0 22 -4 40 -10 40 -6 0 -10 -38 -10 -95z"/>
<path d="M1833 930 c-29 -12 -43 -40 -43 -88 0 -53 27 -85 70 -85 43 0 60 24 60 88 0 73 -34 106 -87 85z m55 -32 c17 -17 15 -93 -2 -108 -8 -6 -25 -10 -38 -8 -20 3 -23 10 -26 52 -2 27 -1 55 2 62 7 17 48 18 64 2z"/>
<path d="M1990 845 c0 -78 3 -95 15 -95 12 0 15 14 15 68 l1 67 24 -30 c21 -25 27 -28 35 -15 5 8 10 18 10 23 0 4 7 7 15 7 12 0 15 -13 15 -60 0 -33 4 -60 10 -60 6 0 10 38 10 95 0 106 -12 122 -46 60 -10 -19 -22 -35 -27 -35 -4 0 -17 16 -28 35 -37 62 -49 47 -49 -60z"/>
<path d="M2210 845 l0 -95 60 0 c47 0 60 3 60 15 0 11 -12 15 -45 15 -41 0 -45 2 -45 25 0 21 5 25 30 25 20 0 30 5 30 15 0 10 -10 15 -30 15 -25 0 -30 4 -30 25 0 23 4 25 45 25 33 0 45 4 45 15 0 12 -13 15 -60 15 l-60 0 0 -95z"/>
<path d="M2424 930 c-49 -20 -32 -79 28 -96 23 -7 34 -16 36 -32 3 -19 -1 -22 -28 -22 -18 0 -33 6 -36 15 -4 8 -12 15 -20 15 -17 0 -17 -5 -4 -30 21 -39 102 -32 115 10 9 27 -9 48 -57 67 -26 10 -38 21 -36 32 4 22 56 27 64 7 3 -9 12 -16 20 -16 26 0 12 30 -23 49 -25 13 -30 13 -59 1z"/>
<path d="M363 530 c-70 -29 -45 -140 32 -140 12 0 34 9 49 21 64 51 -3 151 -81 119z"/>
</g>
</svg>